<?xml version="1.0" encoding="utf-8"?>
<!-- Generator: Adobe Illustrator 26.5.0, SVG Export Plug-In . SVG Version: 6.00 Build 0)  -->
<svg version="1.1" id="svg3265" xmlns:svg="http://www.w3.org/2000/svg"
	 xmlns="http://www.w3.org/2000/svg" xmlns:xlink="http://www.w3.org/1999/xlink" x="0px" y="0px" viewBox="0 0 800 295.5"
	 style="enable-background:new 0 0 800 295.5;" xml:space="preserve">
<style type="text/css">
	.st0{fill-rule:evenodd;clip-rule:evenodd;fill:#FFFFFF;}
</style>
<g id="layer1" transform="translate(97.142897,-21.75554)">
	<path id="polygon10" class="st0" d="M679.2,81L663,103.3l6.8,3.8l20.8-20.9L679.2,81z M295.6,113.5l-2.2,4.8l-45.1,102.4h12.5
		l12.4-29.1H317l12.1,29.1h12.7l-44-102.4C297.7,118.3,295.6,113.5,295.6,113.5z M60.8,116.2c-33.3,0-54.1,24.9-54.1,53.7
		c0,28.8,21,52.9,54.1,52.9c10.8,0,21.5-3.6,30.2-9.9v-13.7c-8.1,8.1-19.1,13.3-30.6,13.3c-24.9,0-41.3-20.5-41.3-43
		c0-22.4,16.1-43,41.1-43c11.8,0,22.8,5,30.9,13.3v-13.7C82.1,119.4,72.1,116.2,60.8,116.2z M136,118.3v102.4h11.4v-50.3h34.8v-10.6
		h-34.8v-41.6C147.5,118.3,136,118.3,136,118.3z M197.8,118.3v102.4h11.4V118.3C209.2,118.3,197.8,118.3,197.8,118.3z M379.2,118.3
		v102.4h11.4v-45H406l23.2,45h13.2l-24.9-46.5c10.6-3.1,21-11.3,21-27.6c0-20.6-15.5-28.3-32.3-28.3
		C406.2,118.3,379.2,118.3,379.2,118.3z M489.7,118.3v102.4h11.4V118.3C501.1,118.3,489.7,118.3,489.7,118.3z M544.2,118.3v10.6H569
		v91.8h11.4v-91.8h25v-10.6C605.4,118.3,544.2,118.3,544.2,118.3z M646.7,118.3v102.4h55.4v-10.6h-44v-40.2h37.8v-10.6h-37.8v-30.4
		h42.3v-10.6C700.4,118.3,646.7,118.3,646.7,118.3z M390.6,128.9h14.2c11.8,0,22.4,4.7,22.4,17.7c0,13-9.1,19.1-22.2,19.1h-14.3
		V128.9z M295.4,140l17.1,41h-34.7L295.4,140z"/>
	<path id="path26" class="st0" d="M-97.1,169.5c0-81.6,65.7-147.7,149-147.7c36.5,0,69.8,13.2,95.6,35.1v22.7
		c-23.8-25.2-57.5-41-94.9-41c-73,0-130,58.4-130,130.4c0,72,57.1,130.4,130,130.4c37.4,0,71.1-15.7,94.9-41v23.7
		c-25.8,21.9-59.1,35.1-95.6,35.1C-31.3,317.3-97.1,251.1-97.1,169.5L-97.1,169.5L-97.1,169.5z"/>
	<path id="path30" class="st0" d="M364.5,251.7c-1.3,0-2.3,1.1-2.3,2.3c0,1.2,1.1,2.3,2.3,2.3c1.2,0,2.3-1.1,2.3-2.3
		C366.8,252.8,365.7,251.7,364.5,251.7z M371.2,251.7c-0.2,0-0.3,0-0.5,0c-1.1,0.2-1.9,1.2-1.9,2.3c0,1.2,1.1,2.3,2.3,2.3
		c1.2,0,2.3-1.1,2.3-2.3C373.5,252.8,372.4,251.7,371.2,251.7L371.2,251.7z M311.6,257.5c-0.8,0-1.6,0.1-2.4,0.2
		c-0.3,0.1-0.5,0.1-0.8,0.2c-0.2,0.1-0.5,0.2-0.7,0.2c-0.2,0.1-0.4,0.2-0.7,0.3c-2.1,1.1-3.5,3.1-3.5,5.7c0,1.9,0.4,3.2,1.4,4.2
		c0.1,0.1,0.3,0.3,0.4,0.4c0.3,0.3,0.7,0.5,1.1,0.8s0.8,0.4,1.3,0.6c1,0.4,2.1,0.8,3.3,1.2c0.5,0.2,1,0.3,1.4,0.4
		c3,1,4.1,1.9,4.1,3.6c0,1.8-0.9,2.9-2.8,3.3c-0.3,0.1-0.7,0.1-1,0.2c-0.4,0-0.8,0.1-1.2,0.1c-2.3,0-4.7-1.1-6.3-2.9l-2.6,2.5
		c1.8,2.1,4.3,3.5,7.3,3.8c0.4,0,0.9,0.1,1.3,0.1c6.2,0,8.9-3,8.9-7.3c0-1.4-0.3-2.4-0.8-3.3c-0.1-0.2-0.2-0.3-0.4-0.5
		c-1.3-1.6-3.6-2.6-6.6-3.5c-1-0.3-1.9-0.6-2.6-0.9c-0.3-0.1-0.6-0.3-0.9-0.4c-1.3-0.7-1.8-1.4-1.8-2.5c0-0.2,0-0.4,0.1-0.6
		s0.1-0.4,0.2-0.6c0.5-1.1,1.7-1.8,3.8-1.8c2.1,0,3.7,0.6,5.1,1.8c0.2,0.2,0.4,0.4,0.6,0.6l2.6-2.6
		C317.4,258.7,314.9,257.5,311.6,257.5z M412.2,257.5c-4.5,0-8,2.6-8,6.8c0,4.3,2.4,5.6,7.6,7.1c4,1.2,5.5,2.1,5.5,4
		c0,1.8-0.9,2.9-2.8,3.3c-0.3,0.1-0.7,0.1-1,0.2c-0.4,0-0.8,0.1-1.2,0.1c-2.3,0-4.7-1.1-6.3-2.9l-2.6,2.5c1.8,2.1,4.3,3.5,7.3,3.8
		c0.4,0,0.9,0.1,1.3,0.1c6.2,0,8.9-3,8.9-7.3c0-1.4-0.3-2.4-0.8-3.3c-0.1-0.2-0.2-0.3-0.4-0.5c-1.3-1.6-3.6-2.6-6.6-3.5
		c-1-0.3-1.9-0.6-2.6-0.9c-0.3-0.1-0.6-0.3-0.9-0.4c-1.3-0.7-1.8-1.4-1.8-2.5c0-0.2,0-0.4,0.1-0.6s0.1-0.4,0.2-0.6
		c0.5-1.1,1.7-1.8,3.8-1.8c2.1,0,3.7,0.6,5.1,1.8c0.2,0.2,0.4,0.4,0.6,0.6l2.6-2.6C418,258.7,415.5,257.5,412.2,257.5z M172,257.9
		v14c0,6.7,3.1,10.6,9.1,10.6c6,0,9.3-3.7,9.3-10.5v-14.1h-3.7v14.2c0,4.4-1.8,6.8-5.6,6.8c-3.6,0-5.5-2.5-5.5-7v-13.9H172z
		 M197,257.9v24.2h3.5v-12.6c0-1.3,0-4.7,0-5.6c0.4,0.6,1.2,2.1,1.8,3l9.7,15.2h3.4v-24.2h-3.5v12.5c0,1.3,0.1,4.8,0.1,5.7
		c-0.3-0.6-1.4-2.4-2-3.4l-9.2-14.8H197L197,257.9z M222.5,257.9v24.2h3.7v-24.2H222.5z M231.7,257.9l8.4,24.2h3.8l8.3-24.2h-3.9
		l-5,15.4c-0.2,0.7-0.5,1.6-0.8,2.4s-0.5,1.6-0.6,2c-0.2-0.9-0.9-3-1.3-4.4l-5.1-15.4H231.7z M257.6,257.9v24.2h16.1v-3.5h-12.5
		v-7.7h7v-3.5h-7v-6h12v-3.5H257.6z M279.5,257.9v24.2h3.6v-9.6h5.5l4.8,9.6h4.2l-5-9.9c3.3-0.8,5.3-3.2,5.3-7.1
		c0-5-3.6-7.2-7.8-7.2H279.5z M326.5,257.9v24.2h3.6v-24.2H326.5z M335.7,257.9v3.6h7.1v20.7h3.6v-20.7h7.1v-3.6H335.7z M366,257.9
		l-8.7,24.2h3.8l2-5.8h9.7l2,5.8h3.9l-8.8-24.2H366z M382.5,257.9v3.6h7.1v20.7h3.6v-20.7h7.1v-3.6H382.5z M427,257.9v24.2h3.4
		v-12.8c0-1.5-0.1-3.6-0.1-4.2c0.3,0.7,1,2.4,1.6,3.8l5.8,13.6l5.9-13.6c0.6-1.4,1.3-3.1,1.6-3.8c0,0.7-0.1,2.8-0.1,4.2v12.8h3.6
		v-24.2h-3.9l-5.3,12.9c-0.3,0.7-0.6,1.5-0.9,2.2s-0.5,1.4-0.7,1.9c-0.3-1-1.1-2.8-1.7-4.2l-5.4-12.9H427L427,257.9z M455.5,257.9
		v24.2h16.1v-3.5h-12.5v-7.7h6.9v-3.5h-6.9v-6h12v-3.5H455.5z M477.4,257.9v24.2h6.6c6.3,0,11.8-3.6,11.8-12.1
		c0-8.5-5.3-12.1-11.8-12.1H477.4z M501.6,257.9v24.2h3.7v-24.2H501.6z M512,257.9v3.3h9c1.4,0,3.9,0,4.9-0.1
		c-0.6,0.6-2,2.2-2.7,3.1l-11.8,14.3v3.5h18.4v-3.3h-9.5c-1.4,0-3.9,0-4.9,0.1c0.6-0.6,2-2.2,2.7-3.1l11.7-14.3v-3.5H512z
		 M536.1,257.9v24.2h3.6v-24.2H536.1z M546.8,257.9v24.2h3.5v-12.6c0-1.3,0-4.7,0-5.6c0.4,0.6,1.2,2.1,1.8,3l9.7,15.2h3.4v-24.2
		h-3.5v12.5c0,1.3,0.1,4.8,0.1,5.7c-0.3-0.6-1.4-2.4-2-3.4l-9.2-14.8H546.8L546.8,257.9z M582,257.9v24.2h9.6c0.3,0,0.7,0,1,0
		c4.7-0.3,7.3-2.8,7.3-7.4c0-3.4-2.2-5.1-4.1-5.7c1.8-0.9,3.1-2.4,3.1-4.8c0-4.1-2.7-6.3-7-6.3L582,257.9L582,257.9z M606,257.9
		v24.2h16.1v-3.5h-12.5v-7.7h7v-3.5h-7v-6h12v-3.5H606z M627.8,257.9v24.2h3.6v-9.6h5.5l4.8,9.6h4.2l-4.9-9.9
		c3.3-0.8,5.3-3.2,5.3-7.1c0-5-3.6-7.2-7.8-7.2H627.8z M652.4,257.9v24.2h15.7v-3.6H656v-20.7H652.4z M673.8,257.9v24.2h3.6v-24.2
		H673.8z M684.5,257.9v24.2h3.5v-12.6c0-1.3,0-4.7,0-5.6c0.4,0.6,1.2,2.1,1.8,3l9.7,15.2h3.5v-24.2h-3.5v12.5c0,1.3,0,4.8,0,5.7
		c-0.3-0.6-1.4-2.4-2-3.4l-9.2-14.8H684.5z M585.4,261.2h6.5c2.4,0,3.4,1.4,3.4,3.2c0,1.6-1,3.1-3.4,3.1h-6.5V261.2z M283,261.3h7.1
		c2.5,0,4.1,1.4,4.1,3.9c0,2.6-1.7,3.9-4.1,3.9H283V261.3z M631.4,261.3h7.1c2.5,0,4.1,1.4,4.1,3.9c0,2.6-1.7,3.9-4.1,3.9h-7.1
		V261.3z M481,261.4h3c5.7,0,8.1,3.5,8.1,8.6c0,5.1-2.4,8.6-8.1,8.6h-3V261.4z M367.9,262c0.3,1,1.2,3.8,1.8,5.6l1.9,5.6h-7.5
		l1.9-5.5C366.7,265.8,367.6,263,367.9,262z M585.4,270.8h6.6c2.7,0,4.3,1.5,4.3,4c0,2.4-1.2,4-4.4,4h-6.5V270.8z"/>
</g>
</svg>
